<?xml version="1.0" standalone="no"?>
<!DOCTYPE svg PUBLIC "-//W3C//DTD SVG 20010904//EN"
 "http://www.w3.org/TR/2001/REC-SVG-20010904/DTD/svg10.dtd">
<svg version="1.0" xmlns="http://www.w3.org/2000/svg"
 width="242.000000pt" height="279.000000pt" viewBox="0 0 242.000000 279.000000"
 preserveAspectRatio="xMidYMid meet">

<g transform="translate(0.000000,279.000000) scale(0.100000,-0.100000)"
fill="#000000" stroke="none">
<path d="M1418 2433 c-23 -16 -38 -34 -38 -46 0 -16 -3 -18 -12 -9 -10 10 -48
-11 -123 -71 -5 -4 -34 -24 -64 -45 l-55 -37 3 -62 c3 -72 -2 -75 -57 -38 -20
14 -40 25 -44 25 -4 0 -76 -48 -159 -107 l-151 -108 6 -44 c3 -24 6 -52 6 -62
0 -11 7 -19 15 -19 8 0 15 5 15 11 0 8 4 8 14 0 11 -10 16 -8 20 7 9 26 52 46
60 27 3 -9 -16 -25 -57 -48 -34 -18 -64 -42 -65 -52 -2 -9 0 -15 5 -12 5 3 21
8 35 11 15 2 36 14 47 25 24 24 44 27 39 6 -2 -8 -32 -29 -68 -48 l-65 -33 -3
-96 c-3 -90 -4 -96 -22 -91 -11 3 -20 8 -20 12 0 3 -4 12 -8 19 -6 9 -22 7
-68 -12 l-59 -24 -3 -91 c-2 -74 1 -97 17 -128 28 -54 116 -159 130 -155 7 1
10 -2 7 -7 -7 -10 50 -63 117 -110 71 -48 182 -98 271 -121 113 -29 321 -28
432 1 146 38 325 145 408 245 l37 44 -46 0 c-29 0 -45 4 -45 13 0 8 -4 7 -10
-3 -9 -13 -10 -13 -10 0 0 10 -3 11 -8 4 -4 -6 -19 -13 -34 -16 -23 -4 -28 -2
-29 16 0 21 -1 21 -9 1 -6 -15 -8 -6 -8 30 0 43 1 46 8 20 7 -27 15 -18 11 13
-1 6 3 12 9 12 5 0 10 -9 10 -19 0 -11 5 -23 10 -26 6 -3 10 -1 10 4 0 6 6 10
13 8 9 -1 13 92 15 438 l2 441 -42 32 c-23 18 -48 32 -56 32 -7 0 -41 24 -75
53 -85 73 -97 85 -97 100 0 14 -102 117 -116 116 -5 0 -26 -12 -46 -26z m52
-228 c0 -14 -15 -28 -47 -45 -27 -13 -50 -27 -53 -30 -3 -3 -14 -10 -25 -16
-11 -5 -37 -20 -57 -33 l-38 -23 0 49 c0 26 4 44 8 38 12 -16 32 -16 32 0 0 8
-6 15 -12 15 -7 1 0 8 16 16 23 13 30 14 37 3 9 -14 13 -6 22 36 3 15 6 12 14
-15 l11 -35 1 31 c1 30 30 58 32 31 0 -9 2 -9 5 0 3 7 12 9 20 6 8 -3 14 1 14
8 0 23 20 -13 20 -36z m0 -96 c0 -20 -9 -29 -45 -46 l-45 -21 0 34 c0 25 4 32
14 28 9 -3 17 3 21 15 4 12 12 18 21 14 9 -3 14 1 14 13 0 16 2 17 10 4 5 -8
10 -27 10 -41z m76 30 c19 -22 19 -22 -3 -10 -24 12 -39 31 -25 31 5 0 17 -10
28 -21z m-470 -37 c-18 -4 -15 -84 5 -109 12 -15 12 -16 -5 -10 -17 7 -18 6
-3 -17 15 -23 15 -24 -6 -19 -18 4 -19 3 -7 -7 13 -9 12 -11 -5 -8 -18 3 -20
12 -23 106 l-3 104 31 -19 c21 -12 26 -19 16 -21z m155 -46 c-6 -7 -33 -23
-60 -37 -36 -17 -51 -31 -54 -49 -2 -14 -4 -2 -5 25 0 36 2 44 8 30 8 -18 9
-18 9 -2 1 21 24 47 41 47 7 0 10 7 6 15 -3 8 -1 15 3 15 5 0 12 -6 14 -12 3
-7 6 -2 7 12 1 14 4 19 7 13 7 -19 23 -16 25 5 0 9 3 2 5 -16 3 -18 0 -39 -6
-46z m136 -10 c-5 -13 -95 -66 -112 -66 -3 0 -5 15 -5 34 0 29 3 33 20 29 11
-3 20 0 20 6 0 6 3 10 8 10 20 -3 32 2 26 13 -4 7 -3 8 5 4 6 -4 14 0 18 10 6
16 7 16 16 -4 5 -11 7 -28 4 -36z m184 -6 c5 0 9 -5 9 -10 0 -6 -12 -3 -26 6
-19 13 -22 19 -12 25 8 6 14 3 16 -6 2 -8 8 -15 13 -15z m99 14 c0 -8 -19 -13
-24 -6 -3 5 1 9 9 9 8 0 15 -2 15 -3z m-413 -78 c-6 -16 -96 -61 -104 -52 -4
3 -1 6 5 6 7 0 12 5 12 11 0 5 -5 7 -11 3 -8 -4 -8 0 0 15 7 11 18 21 26 21 8
0 15 5 15 12 0 6 3 8 6 5 4 -3 16 0 28 9 19 13 21 13 24 -1 2 -9 1 -22 -1 -29z
m373 4 c0 -5 -7 -7 -15 -4 -8 4 -15 8 -15 10 0 2 7 4 15 4 8 0 15 -4 15 -10z
m160 0 c0 -5 -4 -10 -10 -10 -5 0 -10 5 -10 10 0 6 5 10 10 10 6 0 10 -4 10
-10z m37 -25 c8 -9 13 -18 11 -21 -3 -2 -13 5 -23 16 -21 23 -11 27 12 5z
m-797 -15 c0 -9 -129 -90 -143 -90 -4 0 -7 10 -6 23 0 12 3 17 6 10 3 -9 11
-5 26 10 12 13 29 23 37 22 8 0 24 10 37 23 22 22 43 22 43 2z m44 -35 c3 -9
0 -15 -9 -15 -8 0 -15 7 -15 15 0 8 4 15 9 15 5 0 11 -7 15 -15z m716 -5 c0
-5 -5 -10 -11 -10 -5 0 -7 5 -4 10 3 6 8 10 11 10 2 0 4 -4 4 -10z m38 -22
c19 -19 14 -29 -8 -16 -20 13 -27 28 -12 28 4 0 13 -5 20 -12z m-882 -54 c-3
-17 -32 -44 -48 -44 -18 0 -6 38 15 48 31 15 36 14 33 -4z m124 -171 c0 -12 5
-25 11 -29 8 -4 7 -9 -2 -15 -12 -8 -11 -11 1 -19 13 -9 13 -11 0 -20 -13 -9
-13 -11 0 -21 12 -8 12 -12 2 -16 -10 -4 -10 -8 -1 -20 10 -12 10 -16 -2 -24
-11 -7 -11 -9 0 -9 8 0 11 -7 8 -20 -3 -11 1 -27 10 -35 12 -12 12 -15 1 -15
-10 0 -13 -10 -12 -32 2 -31 -13 -68 -28 -68 -5 0 -8 89 -8 198 0 131 4 192
10 182 5 -8 10 -25 10 -37z m-345 -195 c6 -4 3 -12 -9 -21 -16 -12 -17 -16 -5
-38 l13 -24 7 30 8 30 -1 -35 c-2 -69 2 -91 17 -97 9 -3 22 2 30 13 8 11 15
14 15 9 0 -15 40 -16 46 -2 2 7 24 12 52 12 41 -1 47 -3 50 -23 3 -17 -2 -22
-20 -23 -13 0 -30 -2 -38 -4 -8 -1 -33 -6 -55 -9 -22 -4 -55 -9 -74 -12 -31
-6 -33 -5 -27 17 3 13 3 18 0 12 -3 -7 -12 -13 -20 -13 -11 0 -13 -7 -8 -27 4
-16 3 -25 -1 -21 -5 5 -9 69 -9 144 -1 97 1 129 9 112 5 -13 14 -26 20 -30z
m610 -18 c7 0 15 -6 18 -12 2 -7 8 -1 12 14 9 34 25 27 26 -10 1 -27 1 -27 8
-3 4 14 13 27 21 29 13 4 13 3 2 -10 -8 -10 -9 -19 -3 -22 5 -4 14 2 20 11 6
10 11 14 11 9 0 -5 6 -3 14 3 12 10 16 5 26 -24 7 -20 10 -39 7 -42 -3 -2 -34
-9 -69 -13 -35 -5 -84 -12 -110 -16 l-48 -7 0 39 c0 22 4 35 8 29 13 -18 33
-16 32 2 -1 10 -1 27 0 38 2 17 3 18 7 3 2 -10 11 -18 18 -18z m-89 -29 c12 9
14 5 14 -29 l0 -41 -55 -6 c-31 -4 -58 -5 -61 -3 -9 10 8 37 27 43 10 4 19 13
19 21 0 17 16 19 23 2 3 -7 6 -4 7 7 1 12 4 15 7 7 4 -10 8 -10 19 -1z m314
-23 c0 -9 3 -8 10 2 7 12 13 9 35 -14 25 -27 28 -53 3 -28 -7 7 -22 12 -34 12
-39 0 -55 10 -41 26 15 17 27 18 27 2z m126 -20 c5 4 6 3 2 -2 -4 -5 0 -15 10
-22 15 -11 13 -12 -15 -10 -39 3 -48 10 -39 32 5 12 9 14 20 5 7 -6 17 -7 22
-3z m-140 -37 c5 9 10 7 20 -5 7 -10 17 -15 22 -12 14 9 18 -7 13 -62 -4 -39
-5 -43 -12 -22 -7 25 -7 25 -8 2 -1 -21 -4 -22 -33 -17 -41 9 -41 9 -228 0
-93 -5 -158 -12 -162 -19 -4 -6 -7 14 -7 44 1 32 4 47 7 35 4 -11 15 -21 25
-21 12 -1 15 2 9 10 -5 6 -3 21 4 36 9 17 14 20 14 9 0 -9 7 -19 15 -23 13 -5
20 5 16 27 -2 15 18 6 22 -10 3 -13 5 -10 6 7 1 22 3 23 12 8 5 -10 14 -18 19
-18 6 0 10 8 11 18 0 10 3 12 6 5 7 -19 23 -16 23 5 0 14 2 15 10 2 6 -10 10
-11 10 -2 0 23 30 13 30 -10 0 -19 2 -20 10 -8 5 8 10 11 10 6 0 -5 7 -3 15 4
11 9 15 9 15 1 0 -7 4 -9 10 -6 6 3 7 -1 4 -9 -3 -9 -2 -16 4 -16 5 0 13 12
16 26 6 21 9 24 22 13 12 -10 13 -9 8 7 -7 18 -7 18 13 1 16 -14 23 -15 29 -6z
m244 6 c0 -8 -6 -14 -14 -14 -8 0 -12 6 -9 14 3 7 9 13 14 13 5 0 9 -6 9 -13z
m60 -19 c0 -5 -11 -8 -25 -8 -18 0 -25 5 -25 19 0 17 3 18 25 8 14 -7 25 -15
25 -19z m-100 12 c0 -5 -4 -10 -10 -10 -5 0 -10 5 -10 10 0 6 5 10 10 10 6 0
10 -4 10 -10z m-725 -6 c13 -5 14 -8 3 -15 -21 -14 -48 -10 -48 6 0 16 17 19
45 9z m665 -31 c11 3 20 0 20 -6 0 -7 -15 -12 -35 -12 -31 0 -35 3 -35 25 1
24 1 24 15 6 9 -12 22 -17 35 -13z m-600 -28 c0 -16 -6 -25 -15 -25 -8 0 -15
9 -15 20 0 13 -7 20 -19 20 -17 0 -18 -6 -14 -44 4 -38 1 -45 -16 -51 -13 -4
-21 -15 -21 -28 0 -12 -5 -40 -11 -62 -18 -61 -28 -19 -21 88 4 70 2 87 -9 88
-21 3 60 16 104 18 33 1 37 -2 37 -24z m-200 -5 c0 -5 8 -10 19 -10 10 0 21
-9 24 -20 4 -15 0 -20 -14 -20 -13 0 -19 -6 -17 -17 2 -12 -5 -17 -27 -19
-138 -13 -145 -12 -124 27 8 15 8 19 0 15 -6 -4 -11 -2 -11 3 0 10 14 15 33
12 4 0 7 3 7 9 0 5 7 7 15 4 8 -4 15 -1 15 5 0 9 5 9 20 1 14 -8 22 -7 32 5
15 17 28 19 28 5z m240 -76 c0 -27 -4 -43 -10 -39 -11 7 -13 45 -4 69 10 26
14 18 14 -30z m-78 1 c-3 -26 0 -35 11 -35 11 0 15 -11 15 -45 -1 -37 -5 -45
-20 -45 -20 0 -24 16 -5 24 8 3 6 10 -8 22 -19 15 -19 16 -1 10 16 -5 17 -4 6
9 -7 8 -16 12 -21 9 -5 -3 -9 0 -9 5 0 6 5 11 10 11 6 0 10 16 10 35 0 19 4
35 8 35 4 0 6 -16 4 -35z m585 -27 c-3 -8 -6 -5 -6 6 -1 11 2 17 5 13 3 -3 4
-12 1 -19z m-374 -9 c-8 -8 -13 -7 -18 2 -5 8 -4 10 3 5 7 -4 12 -2 12 5 0 7
3 9 7 6 4 -4 2 -12 -4 -18z m-63 2 c0 -5 -7 -11 -15 -15 -9 -3 -15 0 -15 9 0
8 7 15 15 15 8 0 15 -4 15 -9z m538 -23 c-16 -16 -38 -21 -38 -10 0 9 42 32
49 26 2 -2 -3 -9 -11 -16z m96 7 c-4 -8 -8 -15 -10 -15 -2 0 -4 7 -4 15 0 8 4
15 10 15 5 0 7 -7 4 -15z m-981 -2 c-7 -2 -21 -2 -30 0 -10 3 -4 5 12 5 17 0
24 -2 18 -5z m-86 -9 c-3 -3 -12 -4 -19 -1 -8 3 -5 6 6 6 11 1 17 -2 13 -5z
m1050 -49 c-11 -23 -27 -34 -27 -18 0 6 30 43 36 43 1 0 -3 -11 -9 -25z m-557
-5 c0 -5 -5 -12 -11 -16 -14 -8 -33 11 -25 25 7 11 36 4 36 -9z m107 3 c3 -7
-4 -9 -16 -6 -12 3 -18 9 -15 15 7 11 26 6 31 -9z m80 -15 c-3 -7 -5 -2 -5 12
0 14 2 19 5 13 2 -7 2 -19 0 -25z m136 12 c-3 -11 -7 -20 -9 -20 -2 0 -4 9 -4
20 0 11 4 20 9 20 5 0 7 -9 4 -20z m57 16 c0 -15 -14 -35 -21 -30 -15 9 -10
34 6 34 8 0 15 -2 15 -4z m-615 -15 c3 -5 1 -12 -5 -16 -5 -3 -10 1 -10 9 0
18 6 21 15 7z m271 -18 c-10 -10 -19 5 -10 18 6 11 8 11 12 0 2 -7 1 -15 -2
-18z m244 6 c0 -5 -4 -9 -10 -9 -5 0 -10 7 -10 16 0 8 5 12 10 9 6 -3 10 -10
10 -16z m-25 -27 c-3 -3 -11 0 -18 7 -9 10 -8 11 6 5 10 -3 15 -9 12 -12z"/>
<path d="M1390 2210 c0 -5 5 -10 11 -10 5 0 7 5 4 10 -3 6 -8 10 -11 10 -2 0
-4 -4 -4 -10z"/>
<path d="M684 1344 c3 -9 6 -20 6 -25 0 -5 5 -9 10 -9 6 0 10 11 10 25 0 16
-6 25 -16 25 -11 0 -14 -5 -10 -16z"/>
<path d="M1407 1303 c-4 -3 -7 -13 -7 -22 1 -13 3 -13 11 2 11 19 8 33 -4 20z"/>
<path d="M1511 1294 c0 -11 3 -14 6 -6 3 7 2 16 -1 19 -3 4 -6 -2 -5 -13z"/>
<path d="M1540 1294 c0 -3 7 -12 15 -20 13 -14 15 -13 15 5 0 12 -6 21 -15 21
-8 0 -15 -3 -15 -6z"/>
<path d="M951 1223 c1 -27 3 -41 6 -32 2 9 14 21 26 27 18 9 19 11 5 11 -10 1
-18 7 -18 15 0 8 8 17 18 19 10 3 6 5 -10 6 -27 1 -28 -1 -27 -46z"/>
<path d="M2062 1424 c-9 -9 -18 -12 -25 -6 -7 5 -22 9 -34 10 -22 1 -23 -3
-23 -64 0 -35 -4 -64 -9 -64 -11 0 -12 -72 -1 -89 12 -20 130 179 130 220 0
14 -24 10 -38 -7z"/>
</g>
</svg>
